<?xml version="1.0" encoding="utf-8"?>
<!-- Generator: Adobe Illustrator 24.1.2, SVG Export Plug-In . SVG Version: 6.00 Build 0)  -->
<svg version="1.1" id="Capa_1" xmlns="http://www.w3.org/2000/svg" xmlns:xlink="http://www.w3.org/1999/xlink" x="0px" y="0px"
	 viewBox="0 0 500 500" style="enable-background:new 0 0 500 500;" xml:space="preserve">
<style type="text/css">
	.st0{fill:#EBEBEB;}
</style>
<g>
	<path class="st0" d="M468.7,25.8c-3.1-0.1-5.6,2-5.9,5c0,0.2-2.2,18.9-16.3,42.2c-13,21.5-39.3,51.6-90.3,72.5
		C286,174.3,259.7,230.1,250,263.8c-9.7-33.6-36.1-89.5-106.3-118.3C46.2,105.5,37.2,31.6,37.2,30.8c-0.3-3-2.9-5.2-5.9-5
		S26,28.4,26,31.4c0.3,180.4,122.6,272.8,149.9,291.1c-12.4,15.9-19.9,35.9-19.9,57.6c0,51.8,42.2,94,94,94s94-42.2,94-94
		c0-0.1,0-0.2,0-0.3v-0.1c0-0.1,0-0.1,0-0.1c-0.1-21.5-7.5-41.3-19.8-57C351.4,304.3,473.7,211.9,474,31.4
		C474,28.5,471.7,26,468.7,25.8L468.7,25.8z M332.5,374.2h-165c3.1-42.9,38.9-76.8,82.5-76.8S329.4,331.3,332.5,374.2L332.5,374.2z
		 M39.3,71.2c14,26.6,42.5,61,100.1,84.7c83.8,34.3,101,109.5,104.2,130.6c-23.6,1.6-44.8,11.8-60.5,27.6
		C162,300.1,55.9,223.1,39.3,71.2L39.3,71.2z M250,463c-43.9,0-79.9-34.4-82.6-77.6h165.1C329.8,428.6,293.9,463,250,463L250,463z
		 M316.7,314.1c-15.7-15.8-36.9-26-60.4-27.6c3.2-21.1,20.5-96.3,104.2-130.6c57.6-23.6,86.1-58.1,100.1-84.6
		C444.1,223,337.9,300.1,316.7,314.1L316.7,314.1z"/>
</g>
</svg>
