<?xml version="1.0" encoding="utf-8"?>
<!-- Generator: Adobe Illustrator 24.1.2, SVG Export Plug-In . SVG Version: 6.00 Build 0)  -->
<svg version="1.1" id="Capa_1" xmlns="http://www.w3.org/2000/svg" xmlns:xlink="http://www.w3.org/1999/xlink" x="0px" y="0px"
	 viewBox="0 0 500 500" style="enable-background:new 0 0 500 500;" xml:space="preserve">
<g>
	<path d="M31.6,473.9h217.5c0.3,0,0.6,0,0.9,0s0.6,0,0.9,0h217.5c1.9,0,3.7-1,4.8-2.7c1-1.7,1.1-3.7,0.2-5.4L255,28.9
		c-1.9-3.8-8.1-3.8-10,0L26.6,465.8c-0.9,1.7-0.8,3.8,0.2,5.4C27.9,472.9,29.7,473.9,31.6,473.9L31.6,473.9z M255.6,206.9
		c68,2.9,122.4,59.1,122.4,127.8c0,68.7-54.4,124.9-122.4,127.8V206.9z M255.6,195.7V55.2l88.6,177.2
		C320.7,210.7,289.7,197.1,255.6,195.7L255.6,195.7z M244.4,195.7c-34.1,1.4-65.1,15-88.6,36.7l88.6-177.2V195.7z M244.4,206.9
		v255.7c-68-2.9-122.4-59.1-122.4-127.8C122,266,176.4,209.8,244.4,206.9z M304.7,462.7c49.6-21.3,84.5-70.6,84.5-128
		c0-4.6-0.2-9.2-0.7-13.7l70.8,141.7L304.7,462.7z M111.5,321c-0.4,4.5-0.7,9.1-0.7,13.7c0,57.3,34.8,106.7,84.5,128H40.7L111.5,321
		z"/>
</g>
</svg>
