<?xml version="1.0" encoding="utf-8"?>
<!-- Generator: Adobe Illustrator 24.1.2, SVG Export Plug-In . SVG Version: 6.00 Build 0)  -->
<svg version="1.1" id="Capa_1" xmlns="http://www.w3.org/2000/svg" xmlns:xlink="http://www.w3.org/1999/xlink" x="0px" y="0px"
	 viewBox="0 0 500 500" style="enable-background:new 0 0 500 500;" xml:space="preserve">
<style type="text/css">
	.st0{fill:#308E49;stroke:#308E49;stroke-width:3;stroke-miterlimit:10;}
	.st1{opacity:0.5;}
</style>
<path class="st0" d="M362.8,38.8L404,63.2c-7.6,20.5-35.1,105.4,3.4,170H256V78.3C313.2,76.6,351.7,48.1,362.8,38.8L362.8,38.8z"/>
<g class="st1">
	<path class="st0" d="M137,37.9c11,9.3,49.4,37.7,106.8,39.5v154.9H92.4c38.5-64.6,11.1-149.4,3.4-170L137,37.9z"/>
	<path class="st0" d="M159.7,401c-46.3-3.9-51.5-57.8-51.7-60.1c-0.1-1.6-0.9-3-2.2-4c-1-0.7-2.2-1.1-3.4-1.1c-0.4,0-0.7,0-1.1,0.1
		l-24.2,4.8l-38.4-60.5c19.9-10.7,34.7-23.8,45.7-38.4h158.9v204.5C230.2,429,204.1,404.7,159.7,401L159.7,401z"/>
	<path class="st0" d="M459.6,281.2l-38.4,60.5l-24.2-4.8c-1.6-0.3-3.2,0.1-4.5,1c-1.3,1-2.1,2.4-2.2,4c-0.1,0.6-5.2,56.1-51.7,60.1
		c-44.4,3.8-70.5,28-83.6,45.3V242.9h158.9C424.9,257.4,439.7,270.6,459.6,281.2L459.6,281.2z"/>
</g>
<g class="st1">
	<path class="st0" d="M461.5,177.8c-3,11.6-16.3,18-28.5,20.1c-13.6,2.4-26.9-0.5-29.7-6.4c-2.5-5.2,2.9-14.3,14.5-24.4
		c5-4.4,9.3-8.8,13-13.3L461.5,177.8z"/>
	<path class="st0" d="M435.6,111.2c0.5,10.6-2.9,21.1-10.2,31.4c0,0.1-0.1,0.1-0.1,0.2c-3.9,5.4-8.8,10.7-14.8,16
		c-5.3,4.7-9.3,9-12.2,12.9c-0.9-8.1-1.3-16.6-1.1-25.4c0.9-34.2,10.3-64.6,15.1-77.9C420.5,75.8,434.7,91.6,435.6,111.2
		L435.6,111.2z"/>
	<path class="st0" d="M63.2,111.2c0.9-19.6,15.1-35.4,23.3-42.9c5.9,16.5,18.7,59,13.7,103c-2.9-3.8-6.7-8-11.9-12.5
		c-6-5.3-10.9-10.6-14.8-16c0-0.1-0.1-0.1-0.1-0.2C66.1,132.3,62.7,121.8,63.2,111.2L63.2,111.2z"/>
	<path class="st0" d="M67.9,153.8c3.7,4.5,8,9,13,13.3c11.6,10.1,17,19.3,14.5,24.4c-2.8,5.9-16.2,8.8-29.7,6.4
		c-12.1-2.1-25.5-8.5-28.5-20.1L67.9,153.8z"/>
</g>
<path d="M63.8,209.8c3.7,0.6,7.5,1,11.4,1c5.7,0,11.4-0.8,16.3-2.5c-10.1,25.9-29.2,49.8-62.8,66.2c-1.4,0.7-2.5,2-2.9,3.5
	s-0.2,3.2,0.7,4.5l43.8,68.9c1.2,1.9,3.5,2.9,5.8,2.5l22.2-4.4c3.1,16.4,15.5,60.3,61,64.1c57,4.8,80.5,46.8,84.6,55
	c0.2,0.7,0.5,1.5,0.9,2.1c1,1.6,3,2.5,4.9,2.5s3.7-1,4.7-2.5c0.5-0.7,0.8-1.6,0.9-2.4c4.5-8.9,28.1-49.9,84.4-54.7
	c45.5-3.8,57.9-47.7,61-64.1l22.2,4.4c2.3,0.5,4.6-0.5,5.8-2.5l43.8-68.9c0.9-1.3,1.1-3,0.7-4.5s-1.5-2.8-2.9-3.5
	c-30.9-15.1-52-37.3-63.3-66.4c5.1,1.8,10.9,2.7,16.8,2.7c3.9,0,7.7-0.3,11.4-1c17.2-3,36.2-13.3,38.2-33c0.2-1.9-0.6-3.8-2.1-5
	l-33.9-26.2c6.8-11,9.9-22.4,9.4-34.1c-1.6-32.9-32.3-55.3-33.6-56.2c-0.1,0-0.1-0.1-0.2-0.1c-0.1-0.1-0.1-0.1-0.2-0.2L364,26.1
	c-2.2-1.3-4.9-1-6.7,0.8c-0.5,0.4-42,39.4-108.1,39.4c-65.5,0-107.2-39-107.6-39.4c-1.8-1.7-4.6-2-6.7-0.8L86,55
	c-0.1,0-0.1,0.1-0.2,0.2c-0.1,0-0.1,0-0.2,0.1c-1.3,0.9-32,23.3-33.6,56.2c-0.6,11.7,2.6,23.1,9.4,34.1l-33.7,26.3
	c-1.5,1.2-2.3,3.1-2.1,5C27.6,196.6,46.6,206.8,63.8,209.8L63.8,209.8z M160.2,402.5c-46.3-3.9-51.5-57.8-51.7-60.1
	c-0.1-1.6-0.9-3-2.2-4c-1-0.7-2.2-1.1-3.4-1.1c-0.4,0-0.7,0-1.1,0.1l-24.2,4.8l-38.4-60.5c19.9-10.7,34.7-23.8,45.7-38.4h158.9
	v204.5C230.7,430.5,204.6,406.2,160.2,402.5L160.2,402.5z M459.6,281.7l-38.4,60.5l-24.2-4.8c-1.6-0.3-3.2,0.1-4.5,1
	c-1.3,1-2.1,2.4-2.2,4c-0.1,0.6-5.2,56.1-51.7,60.1c-44.4,3.8-70.5,28-83.6,45.3V243.4h158.9C424.9,257.9,439.7,271.1,459.6,281.7
	L459.6,281.7z M461.5,178.7c-3,11.6-16.3,18-28.5,20.1c-13.6,2.4-26.9-0.5-29.7-6.4c-2.5-5.2,2.9-14.3,14.5-24.4
	c5-4.4,9.3-8.8,13-13.3L461.5,178.7z M435.6,112.1c0.5,10.6-2.9,21.1-10.2,31.4c0,0.1-0.1,0.1-0.1,0.2c-3.9,5.4-8.8,10.7-14.8,16
	c-5.3,4.7-9.3,9-12.2,12.9c-0.9-8.1-1.3-16.6-1.1-25.4c0.9-34.2,10.3-64.6,15.1-77.9C420.5,76.7,434.7,92.5,435.6,112.1L435.6,112.1
	z M361.8,37.8L403,62.2c-7.6,20.5-35.1,105.4,3.4,170H255V77.3C312.2,75.6,350.7,47.1,361.8,37.8L361.8,37.8z M137,37.8
	c11,9.3,49.4,37.7,106.8,39.5v154.9H92.4c38.5-64.6,11.1-149.4,3.4-170L137,37.8z M63.2,112.1c0.9-19.6,15.1-35.4,23.3-42.9
	c5.9,16.5,18.7,59,13.7,103c-2.9-3.8-6.7-8-11.9-12.5c-6-5.3-10.9-10.6-14.8-16c0-0.1-0.1-0.1-0.1-0.2
	C66.1,133.2,62.7,122.7,63.2,112.1L63.2,112.1z M67.9,154.7c3.7,4.5,8,9,13,13.3c11.6,10.1,17,19.3,14.5,24.4
	c-2.8,5.9-16.2,8.8-29.7,6.4c-12.1-2.1-25.5-8.5-28.5-20.1L67.9,154.7z"/>
</svg>
