<?xml version="1.0" encoding="utf-8"?>
<!-- Generator: Adobe Illustrator 24.1.2, SVG Export Plug-In . SVG Version: 6.00 Build 0)  -->
<svg version="1.1" id="Capa_1" xmlns="http://www.w3.org/2000/svg" xmlns:xlink="http://www.w3.org/1999/xlink" x="0px" y="0px"
	 viewBox="0 0 450 450" style="enable-background:new 0 0 450 450;" xml:space="preserve">
<style type="text/css">
	.st0{fill:#9ED5DD;stroke:#9ED5DD;stroke-miterlimit:10;}
	.st1{fill:#F9C941;stroke:#F9C941;stroke-miterlimit:10;}
	.st2{fill:#3A3A3A;stroke:#3A3A3A;stroke-width:3;stroke-miterlimit:10;}
</style>
<path class="st0" d="M340.1,271.8c37.8,0,68.5,30.7,68.5,68.5s-30.7,68.5-68.5,68.5s-68.5-30.7-68.5-68.5S302.3,271.8,340.1,271.8z"
	/>
<path class="st0" d="M109.6,273.1c37.8,0,68.5,30.7,68.5,68.5s-30.7,68.5-68.5,68.5s-68.5-30.7-68.5-68.5S71.8,273.1,109.6,273.1z"
	/>
<path class="st1" d="M181.6,23.1v74.1c0,1.5,0.6,3,1.8,4.1c1.1,1.1,2.6,1.6,4.2,1.5l30.9-1.8l-71.8,91.1v-73.8c0-1.5-0.6-3-1.8-4.1
	c-1-1-2.4-1.5-3.8-1.5c-0.1,0-0.2,0-0.3,0l-31.1,1.8L181.6,23.1z"/>
<g>
	<path class="st2" d="M340.1,242.9c-53.8,0-97.6,43.8-97.6,97.6s43.8,97.6,97.6,97.6s97.6-43.8,97.6-97.6
		C437.6,286.7,393.9,242.9,340.1,242.9z M340.1,420.2c-43.9,0-79.7-35.7-79.7-79.7s35.7-79.7,79.7-79.7s79.7,35.7,79.7,79.7
		S384,420.2,340.1,420.2z"/>
</g>
<g>
	<path class="st2" d="M109.6,244C55.8,244,12,287.7,12,341.5s43.8,97.6,97.6,97.6s97.6-43.8,97.6-97.6
		C207.1,287.7,163.4,244,109.6,244z M109.6,421.2c-43.9,0-79.7-35.7-79.7-79.7s35.7-79.7,79.7-79.7s79.7,35.7,79.7,79.7
		S153.5,421.2,109.6,421.2z"/>
</g>
<path class="st2" d="M224.8,276.3c9,0,17.6,2.2,23.4,5.9c-2.5,3.9-4.7,8-6.7,12.3c-4.7-2.3-10.5-3.6-16.6-3.6
	c-6.2,0-12,1.3-16.7,3.6c-2-4.3-4.2-8.4-6.7-12.3C207.1,278.6,215.8,276.3,224.8,276.3L224.8,276.3z"/>
<g>
	<path d="M351.4,371.5c-2.2,2.2-2.2,5.7,0,7.9c1.1,1.1,2.5,1.6,4,1.6s2.9-0.5,4-1.6l16.1-16.1c2.2-2.2,2.2-5.7,0-7.9s-5.7-2.2-7.9,0
		L351.4,371.5z"/>
	<path d="M330,374.5c1.4,0,2.9-0.5,4-1.6l35.4-35.4c2.2-2.2,2.2-5.7,0-7.9s-5.7-2.2-7.9,0L326,365c-2.2,2.2-2.2,5.7,0,7.9
		C327.1,374,328.5,374.5,330,374.5L330,374.5z"/>
	<path d="M340.2,421.2c43.9,0,79.7-35.7,79.7-79.7s-35.7-79.7-79.7-79.7c-43.9,0-79.7,35.7-79.7,79.7S296.3,421.2,340.2,421.2z
		 M340.2,273.1c37.8,0,68.5,30.7,68.5,68.5s-30.7,68.5-68.5,68.5s-68.5-30.7-68.5-68.5S302.5,273.1,340.2,273.1L340.2,273.1z"/>
	<path d="M109.7,449c60,0,108.8-48.8,108.8-108.8c0-12.4-2.2-24.2-6-35.3c3.3-1.7,7.8-2.8,12.5-2.8c4.7,0,9.2,1,12.5,2.7
		c-3.8,11.1-6,23-6,35.3c0,60,48.8,108.8,108.8,108.8S449,400.1,449,340.1s-48.8-108.8-108.8-108.8c-34.6,0-65.4,16.3-85.4,41.6
		c-7.7-5-18.5-8-29.8-8c-11.4,0-22.2,3-29.9,8c-19.9-25.3-50.8-41.7-85.4-41.7C49.8,231.2,1,280,1,340S49.8,449,109.7,449L109.7,449
		z M340.2,242.7c53.8,0,97.6,43.8,97.6,97.6s-43.8,97.6-97.6,97.6s-97.6-43.8-97.6-97.6C242.7,286.5,286.5,242.7,340.2,242.7
		L340.2,242.7z M225.1,276.3c9,0,17.6,2.2,23.4,5.9c-2.5,3.9-4.7,8-6.7,12.3c-4.7-2.3-10.5-3.6-16.6-3.6c-6.2,0-12,1.3-16.7,3.6
		c-2-4.3-4.2-8.4-6.7-12.3C207.4,278.6,216,276.3,225.1,276.3L225.1,276.3z M109.7,242.7c53.8,0,97.6,43.8,97.6,97.6
		s-43.8,97.6-97.6,97.6s-97.6-43.8-97.6-97.6C12.2,286.5,56,242.7,109.7,242.7z"/>
	<path d="M109.7,421.2c43.9,0,79.7-35.7,79.7-79.7s-35.7-79.7-79.7-79.7S30,297.5,30,341.5S65.8,421.2,109.7,421.2z M109.7,273.1
		c37.8,0,68.5,30.7,68.5,68.5s-30.7,68.5-68.5,68.5s-68.5-30.7-68.5-68.5S72,273.1,109.7,273.1z"/>
	<path d="M97.9,126.1l37.6-2.2v84c0,2.4,1.5,4.5,3.8,5.3c0.6,0.2,1.2,0.3,1.8,0.3c1.7,0,3.3-0.8,4.4-2.1L235,97.8
		c1.4-1.7,1.6-4.1,0.6-6.1s-3.1-3.1-5.3-3l-37.4,2.2V6.6c0-2.4-1.5-4.5-3.8-5.3c-2.3-0.8-4.8-0.1-6.2,1.8L93.2,117
		c-1.4,1.7-1.6,4.1-0.6,6.1C93.7,125,95.7,126.2,97.9,126.1L97.9,126.1z M181.8,22.7v74.1c0,1.5,0.6,3,1.8,4.1
		c1.1,1.1,2.6,1.6,4.2,1.5l30.9-1.8l-71.8,91.1V118c0-1.5-0.6-3-1.8-4.1c-1-1-2.4-1.5-3.8-1.5c-0.1,0-0.2,0-0.3,0l-31.1,1.8
		L181.8,22.7z"/>
</g>
</svg>
