<?xml version="1.0" encoding="utf-8"?>
<!-- Generator: Adobe Illustrator 24.1.2, SVG Export Plug-In . SVG Version: 6.00 Build 0)  -->
<svg version="1.1" id="Capa_1" xmlns="http://www.w3.org/2000/svg" xmlns:xlink="http://www.w3.org/1999/xlink" x="0px" y="0px"
	 viewBox="0 0 500 500" style="enable-background:new 0 0 500 500;" xml:space="preserve">
<style type="text/css">
	.st0{fill:#308E49;stroke:#308E49;stroke-width:3;stroke-miterlimit:10;}
	.st1{fill:#9ED5DD;stroke:#9ED5DD;stroke-width:3;stroke-miterlimit:10;}
	.st2{fill:#F9C941;stroke:#F9C941;stroke-width:3;stroke-miterlimit:10;}
	.st3{fill:#C1120C;stroke:#C1120C;stroke-width:3;stroke-miterlimit:10;}
	.st4{fill:#2C3D97;stroke:#2C3D97;stroke-width:3;stroke-miterlimit:10;}
</style>
<path class="st0" d="M37.7,68.6h15.8v347c0,1.9,1,3.7,2.6,4.7c1.6,1,3.7,1.1,5.4,0.3c116.8-55.9,182.3,9,185,11.7c0,0,0,0,0,0
	c1,1,2.4,1.7,4,1.7h0c0.7,0,1.3-0.2,2-0.4c0.1,0,0.1,0,0.2,0c0.7-0.3,1.3-0.7,1.8-1.2c0,0,0,0,0,0c0.7-0.7,67.9-67.8,185-11.7
	c1.7,0.8,3.8,0.7,5.4-0.3c1.6-1,2.6-2.8,2.6-4.7v-347h15.8v376H277.7c-2.2,0-4.3,1.3-5.1,3.4c-3.7,8.5-12,14-21.3,14
	c-9.3,0-17.7-5.5-21.3-14c-0.9-2.1-2.9-3.4-5.1-3.4h-187L37.7,68.6z"/>
<g>
	<path class="st1" d="M436.3,407.6c-94.1-41.5-157.3-7.1-180.3,9.8c-0.2-119.3-0.4-324.7-0.1-347.5c5.3-4.9,23.7-20.2,54.2-28.1V190
		c0,2,1.1,3.9,2.8,4.9c1.7,1,3.9,1,5.6,0l27.4-16.2l27.4,16.2c0.9,0.5,1.9,0.8,2.8,0.8c1,0,1.9-0.2,2.8-0.7c1.8-1,2.8-2.9,2.8-4.9
		l0-149.9c16.7,3.1,34.8,8.8,54.5,17.9L436.3,407.6z"/>
	<path class="st1" d="M64.7,58C171,8.6,234.1,59.8,244.9,69.7c-0.5,28.8-0.2,241.2,0,347.5c-8.6-6.4-22.9-15.3-42.6-21.7
		c-13.3-4.3-30.2-7.7-50.4-7.7c-24.5,0-53.8,5.1-87.2,19.8L64.7,58z"/>
</g>
<path class="st2" d="M134.1,107.7c1.8-0.3,3.4-1.4,4.2-3.1l9.4-18.8l9.4,18.8c0.8,1.6,2.4,2.8,4.2,3.1l20.8,3L167,125.3
	c-1.3,1.3-1.9,3.1-1.6,5l3.6,20.6l-18.7-9.8c-0.8-0.4-1.7-0.6-2.6-0.6c-0.9,0-1.8,0.2-2.6,0.6l-18.7,9.8l3.6-20.6
	c0.3-1.8-0.3-3.7-1.6-5l-15.1-14.6L134.1,107.7z"/>
<path class="st3" d="M371.1,37.5v141.9l-21.8-12.9c-1.8-1-3.9-1-5.7,0l-21.8,12.9l0-141C336.1,35.9,352.6,35.1,371.1,37.5
	L371.1,37.5z"/>
<path class="st4" d="M155.8,212.3c0,12.3-10,22.4-22.4,22.4c-12.4,0-22.4-10-22.4-22.4s10-22.4,22.4-22.4
	C145.8,190,155.8,200,155.8,212.3z"/>
<g>
	<path d="M278.4,297.6c-2.2,2.1-2.4,5.6-0.3,7.9c1.1,1.2,2.6,1.8,4.1,1.8c1.4,0,2.7-0.5,3.8-1.5c1.8-1.7,44.5-40,120.6-6.7
		c2.9,1.2,6.1-0.1,7.4-2.9c1.2-2.8-0.1-6.1-2.9-7.4C327.9,252.4,280.4,295.7,278.4,297.6L278.4,297.6z"/>
	<path d="M411.1,333.5c-83.2-36.3-130.7,7-132.7,8.8c-2.2,2.1-2.4,5.6-0.3,7.9c1.1,1.2,2.6,1.8,4.1,1.8c1.4,0,2.7-0.5,3.8-1.5
		c1.8-1.6,44.5-40,120.6-6.7c2.9,1.2,6.1-0.1,7.4-2.9C415.2,338,413.9,334.7,411.1,333.5L411.1,333.5z"/>
	<path d="M95.5,299c75.8-33.1,113.2,4.9,114.7,6.5c1.1,1.2,2.6,1.8,4.1,1.8c1.4,0,2.7-0.5,3.8-1.5c2.3-2.1,2.4-5.7,0.3-7.9
		c-1.8-1.9-43.9-45.5-127.4-9.1c-2.8,1.2-4.1,4.5-2.9,7.4C89.4,299,92.7,300.3,95.5,299L95.5,299z"/>
	<path d="M210.2,350.2c1.1,1.2,2.6,1.8,4.1,1.8c1.4,0,2.7-0.5,3.8-1.5c2.3-2.1,2.4-5.7,0.3-7.9c-1.8-1.9-43.9-45.5-127.4-9.1
		c-2.8,1.2-4.1,4.5-2.9,7.4c1.2,2.8,4.5,4.1,7.4,2.9C171.4,310.6,208.7,348.6,210.2,350.2L210.2,350.2z"/>
	<path d="M31.6,456.6h189.2c6.1,10.7,17.4,17.4,29.9,17.4c12.5,0,23.9-6.7,29.9-17.4h187.8c3.1,0,5.6-2.5,5.6-5.6V63.8
		c0-3.1-2.5-5.6-5.6-5.6H447v-3.6c0-2.2-1.2-4.1-3.2-5.1C336.1-2.1,267,45.8,250,59.9c-7.1-6-23.4-18.1-48.3-26.2
		c-30.7-9.9-80.9-15.2-145.6,15.8c-1.9,0.9-3.2,2.9-3.2,5.1l0,3.6H31.6c-3.1,0-5.6,2.5-5.6,5.6V451C26,454,28.5,456.5,31.6,456.6
		L31.6,456.6z M435.8,407.7c-94.1-41.5-157.3-7.1-180.3,9.8c-0.2-119.3-0.4-324.7-0.1-347.5c5.3-4.9,23.7-20.2,54.2-28.1v148.3
		c0,2,1.1,3.9,2.8,4.9c1.7,1,3.9,1,5.6,0l27.4-16.2l27.4,16.2c0.9,0.5,1.9,0.8,2.8,0.8c1,0,1.9-0.2,2.8-0.7c1.8-1,2.8-2.9,2.8-4.9
		l0-149.9c16.7,3.1,34.8,8.8,54.5,17.9L435.8,407.7z M370.1,38.4v141.9l-21.8-12.9c-1.8-1-3.9-1-5.7,0l-21.8,12.9l0-141
		C335.2,36.8,351.6,36,370.1,38.4L370.1,38.4z M64.2,58.1c106.4-49.4,169.4,1.8,180.2,11.7c-0.5,28.8-0.2,241.2,0,347.5
		c-8.6-6.4-22.9-15.3-42.6-21.7c-13.3-4.3-30.2-7.7-50.4-7.7c-24.5,0-53.8,5.1-87.2,19.8L64.2,58.1z M37.2,69.4H53v347
		c0,1.9,1,3.7,2.6,4.7c1.6,1,3.7,1.1,5.4,0.3c116.8-55.9,182.3,9,185,11.7c0,0,0,0,0,0c1,1,2.4,1.7,4,1.7h0c0.7,0,1.3-0.2,2-0.4
		c0.1,0,0.1,0,0.2,0c0.7-0.3,1.3-0.7,1.8-1.2c0,0,0,0,0,0c0.7-0.7,67.9-67.8,185-11.7c1.7,0.8,3.8,0.7,5.4-0.3
		c1.6-1,2.6-2.8,2.6-4.7v-347h15.8v376H277.2c-2.2,0-4.3,1.3-5.1,3.4c-3.7,8.5-12,14-21.3,14c-9.3,0-17.7-5.5-21.3-14
		c-0.9-2.1-2.9-3.4-5.1-3.4h-187L37.2,69.4z"/>
	<path d="M100.3,212.3c0,18.5,15.1,33.6,33.6,33.6c18.5,0,33.6-15.1,33.6-33.6c0-18.5-15.1-33.6-33.6-33.6
		C115.4,178.8,100.3,193.8,100.3,212.3L100.3,212.3z M156.3,212.3c0,12.3-10,22.4-22.4,22.4c-12.4,0-22.4-10-22.4-22.4
		s10-22.4,22.4-22.4C146.3,190,156.3,200,156.3,212.3z"/>
	<path d="M118.4,131.2l-5,28.9c-0.4,2.1,0.5,4.2,2.2,5.5c1.7,1.3,4,1.4,5.9,0.4l26.1-13.7l26.1,13.7c0.8,0.4,1.7,0.6,2.6,0.6
		c1.2,0,2.3-0.4,3.3-1.1c1.7-1.3,2.6-3.4,2.2-5.5l-5-28.9l21.1-20.5c1.5-1.5,2.1-3.7,1.4-5.7s-2.4-3.5-4.5-3.8L165.8,97l-13.1-26.3
		c-1.9-3.8-8.1-3.8-10,0L129.6,97l-29.2,4.2c-2.1,0.3-3.9,1.8-4.5,3.8s-0.1,4.3,1.4,5.7L118.4,131.2z M134.1,107.7
		c1.8-0.3,3.4-1.4,4.2-3.1l9.4-18.8l9.4,18.8c0.8,1.6,2.4,2.8,4.2,3.1l20.8,3L167,125.3c-1.3,1.3-1.9,3.1-1.6,5l3.6,20.6l-18.7-9.8
		c-0.8-0.4-1.7-0.6-2.6-0.6c-0.9,0-1.8,0.2-2.6,0.6l-18.7,9.8l3.6-20.6c0.3-1.8-0.3-3.7-1.6-5l-15.1-14.6L134.1,107.7z"/>
	<path d="M188.1,202.3c-3.1,0-5.6,2.5-5.6,5.6s2.5,5.6,5.6,5.6h12.5v12.3c0,3.1,2.5,5.6,5.6,5.6c3.1,0,5.6-2.5,5.6-5.6v-12.3h12.5
		c3.1,0,5.6-2.5,5.6-5.6s-2.5-5.6-5.6-5.6h-12.5V190c0-3.1-2.5-5.6-5.6-5.6c-3.1,0-5.6,2.5-5.6,5.6v12.3L188.1,202.3z"/>
</g>
</svg>
