<?xml version="1.0" encoding="utf-8"?>
<!-- Generator: Adobe Illustrator 24.1.2, SVG Export Plug-In . SVG Version: 6.00 Build 0)  -->
<svg version="1.1" id="Capa_1" xmlns="http://www.w3.org/2000/svg" xmlns:xlink="http://www.w3.org/1999/xlink" x="0px" y="0px"
	 viewBox="0 0 500 500" style="enable-background:new 0 0 500 500;" xml:space="preserve">
<style type="text/css">
	.st0{fill:#308E49;stroke:#308E49;stroke-miterlimit:10;}
</style>
<g>
	<path d="M64.4,210.5c3.7,0.6,7.5,1,11.4,1c5.7,0,11.4-0.8,16.3-2.5c-10.1,25.9-29.2,49.8-62.8,66.2c-1.4,0.7-2.5,2-2.9,3.5
		s-0.2,3.2,0.7,4.5l43.8,68.9c1.2,1.9,3.5,2.9,5.8,2.5l22.2-4.4c3.1,16.4,15.5,60.3,61,64.1c57,4.8,80.5,46.8,84.6,55
		c0.2,0.7,0.5,1.5,0.9,2.1c1,1.6,3,2.5,4.9,2.5s3.7-1,4.7-2.5c0.5-0.7,0.8-1.6,0.9-2.4c4.5-8.9,28.1-49.9,84.4-54.7
		c45.5-3.8,57.9-47.7,61-64.1l22.2,4.4c2.3,0.5,4.6-0.5,5.8-2.5l43.8-68.9c0.9-1.3,1.1-3,0.7-4.5s-1.5-2.8-2.9-3.5
		c-30.9-15.1-52-37.3-63.3-66.4c5.1,1.8,10.9,2.7,16.8,2.7c3.9,0,7.7-0.3,11.4-1c17.2-3,36.2-13.3,38.2-33c0.2-1.9-0.6-3.8-2.1-5
		L438,146.3c6.8-11,9.9-22.4,9.4-34.1c-1.6-32.9-32.3-55.3-33.6-56.2c-0.1,0-0.1-0.1-0.2-0.1c-0.1-0.1-0.1-0.1-0.2-0.2l-48.8-28.9
		c-2.2-1.3-4.9-1-6.7,0.8C357.4,28,315.9,67,249.8,67c-65.5,0-107.2-39-107.6-39.4c-1.8-1.7-4.6-2-6.7-0.8L86.6,55.7
		c-0.1,0-0.1,0.1-0.2,0.2c-0.1,0-0.1,0-0.2,0.1c-1.3,0.9-32,23.3-33.6,56.2c-0.6,11.7,2.6,23.1,9.4,34.1l-33.7,26.3
		c-1.5,1.2-2.3,3.1-2.1,5C28.2,197.3,47.2,207.5,64.4,210.5L64.4,210.5z M160.8,403.2c-46.3-3.9-51.5-57.8-51.7-60.1
		c-0.1-1.6-0.9-3-2.2-4c-1-0.7-2.2-1.1-3.4-1.1c-0.4,0-0.7,0-1.1,0.1l-24.2,4.8l-38.4-60.5c19.9-10.7,34.7-23.8,45.7-38.4h158.9
		v204.5C231.3,431.2,205.2,406.9,160.8,403.2L160.8,403.2z M460.2,282.4l-38.4,60.5l-24.2-4.8c-1.6-0.3-3.2,0.1-4.5,1
		c-1.3,1-2.1,2.4-2.2,4c-0.1,0.6-5.2,56.1-51.7,60.1c-44.4,3.8-70.5,28-83.6,45.3V244.1h158.9C425.5,258.6,440.3,271.8,460.2,282.4
		L460.2,282.4z M462.1,179.4c-3,11.6-16.3,18-28.5,20.1c-13.6,2.4-26.9-0.5-29.7-6.4c-2.5-5.2,2.9-14.3,14.5-24.4
		c5-4.4,9.3-8.8,13-13.3L462.1,179.4z M436.2,112.8c0.5,10.6-2.9,21.1-10.2,31.4c0,0.1-0.1,0.1-0.1,0.2c-3.9,5.4-8.8,10.7-14.8,16
		c-5.3,4.7-9.3,9-12.2,12.9c-0.9-8.1-1.3-16.6-1.1-25.4c0.9-34.2,10.3-64.6,15.1-77.9C421.1,77.4,435.3,93.2,436.2,112.8
		L436.2,112.8z M362.4,38.5l41.2,24.4c-7.6,20.5-35.1,105.4,3.4,170H255.6V78C312.8,76.3,351.3,47.8,362.4,38.5L362.4,38.5z
		 M137.6,38.5c11,9.3,49.4,37.7,106.8,39.5v154.9H93c38.5-64.6,11.1-149.4,3.4-170L137.6,38.5z M63.8,112.8
		c0.9-19.6,15.1-35.4,23.3-42.9c5.9,16.5,18.7,59,13.7,103c-2.9-3.8-6.7-8-11.9-12.5c-6-5.3-10.9-10.6-14.8-16
		c0-0.1-0.1-0.1-0.1-0.2C66.7,133.9,63.3,123.4,63.8,112.8L63.8,112.8z M68.5,155.4c3.7,4.5,8,9,13,13.3
		c11.6,10.1,17,19.3,14.5,24.4c-2.8,5.9-16.2,8.8-29.7,6.4c-12.1-2.1-25.5-8.5-28.5-20.1L68.5,155.4z"/>
</g>
<path class="st0" d="M362.8,38.8L404,63.2c-7.6,20.5-35.1,105.4,3.4,170H256V78.3C313.2,76.6,351.7,48.1,362.8,38.8L362.8,38.8z"/>
</svg>
