<svg id="Capa_1" data-name="Capa 1" xmlns="http://www.w3.org/2000/svg" viewBox="0 0 450 450"><defs><style>.cls-1{fill:#9ed5dd;stroke:#9ed5dd;}.cls-1,.cls-2,.cls-3,.cls-4{stroke-miterlimit:10;}.cls-2{fill:#f9c941;stroke:#f9c941;}.cls-3,.cls-4{fill:#3a3a3a;stroke:#3a3a3a;}.cls-3{stroke-width:3px;}</style></defs><path class="cls-1" d="M340.05,271.81a68.5,68.5,0,1,1-68.5,68.5A68.54,68.54,0,0,1,340.05,271.81Z"/><path class="cls-1" d="M109.55,273.11a68.5,68.5,0,1,1-68.5,68.5A68.54,68.54,0,0,1,109.55,273.11Z"/><path class="cls-2" d="M181.55,23.11v74.1a5.54,5.54,0,0,0,1.8,4.1,5.35,5.35,0,0,0,4.2,1.5l30.9-1.8-71.8,91.1v-73.8a5.54,5.54,0,0,0-1.8-4.1,5.37,5.37,0,0,0-3.8-1.5h-.3l-31.1,1.8Z"/><path class="cls-3" d="M340.05,242.91a97.6,97.6,0,1,0,97.6,97.6C437.55,286.71,393.85,242.91,340.05,242.91Zm0,177.3a79.7,79.7,0,1,1,79.7-79.7A79.79,79.79,0,0,1,340.05,420.21Z"/><path class="cls-3" d="M109.55,244a97.55,97.55,0,1,0,97.6,97.5A97.65,97.65,0,0,0,109.55,244Zm0,177.2a79.7,79.7,0,1,1,79.7-79.7A79.79,79.79,0,0,1,109.55,421.21Z"/><path class="cls-4" d="M225.25,276.81c9,0,17.6,2.2,23.4,5.9A103.84,103.84,0,0,0,242,295a40.3,40.3,0,0,0-33.3,0,103.84,103.84,0,0,0-6.7-12.3c5.6-3.6,14.3-5.9,23.3-5.9Z"/><path d="M351.35,371.51a5.62,5.62,0,0,0,8,7.9l16.1-16.1a5.59,5.59,0,0,0-7.9-7.9Z"/><path d="M330,374.51a5.67,5.67,0,0,0,4-1.6l35.4-35.4a5.59,5.59,0,0,0-7.9-7.9L326,365a5.55,5.55,0,0,0,4,9.5Z"/><path d="M340.15,421.21a79.7,79.7,0,1,0-79.7-79.7A79.79,79.79,0,0,0,340.15,421.21Zm0-148.1a68.5,68.5,0,1,1-68.5,68.5,68.54,68.54,0,0,1,68.5-68.5Z"/><path d="M109.65,449a108.52,108.52,0,0,0,102.8-144.1,29.78,29.78,0,0,1,25-.1,109,109,0,1,0,17.4-31.9c-7.7-5-18.5-8-29.8-8s-22.2,3-29.9,8A108.64,108.64,0,0,0,1,340c0,60,48.8,109,108.7,109Zm230.5-206.3a97.6,97.6,0,1,1-97.6,97.6c.1-53.8,43.9-97.6,97.6-97.6Zm-115.1,33.6c9,0,17.6,2.2,23.4,5.9a103.84,103.84,0,0,0-6.7,12.3,40.3,40.3,0,0,0-33.3,0,103.84,103.84,0,0,0-6.7-12.3c5.6-3.6,14.2-5.9,23.3-5.9Zm-115.4-33.6a97.6,97.6,0,1,1-97.6,97.6C12.15,286.51,56,242.71,109.65,242.71Z"/><path d="M109.65,421.21A79.7,79.7,0,1,0,30,341.51,79.79,79.79,0,0,0,109.65,421.21Zm0-148.1a68.5,68.5,0,1,1-68.5,68.5A68.54,68.54,0,0,1,109.65,273.11Z"/><path d="M97.85,126.11l37.6-2.2v84a5.59,5.59,0,0,0,3.8,5.3,5.66,5.66,0,0,0,1.8.3,5.8,5.8,0,0,0,4.4-2.1L235,97.81a5.63,5.63,0,0,0,.6-6.1,5.57,5.57,0,0,0-5.3-3l-37.4,2.2V6.61a5.59,5.59,0,0,0-3.8-5.3,5.42,5.42,0,0,0-6.2,1.8L93.15,117a5.63,5.63,0,0,0-.6,6.1,5.84,5.84,0,0,0,5.3,3Zm83.9-103.4v74.1a5.54,5.54,0,0,0,1.8,4.1,5.35,5.35,0,0,0,4.2,1.5l30.9-1.8-71.8,91.1V118a5.54,5.54,0,0,0-1.8-4.1,5.37,5.37,0,0,0-3.8-1.5H141l-31.1,1.8Z"/></svg>